<?xml version="1.0" encoding="UTF-8"?>
<!DOCTYPE svg PUBLIC "-//W3C//DTD SVG 1.1//EN" "http://www.w3.org/Graphics/SVG/1.1/DTD/svg11.dtd">
<!-- Creator: CorelDRAW X7 -->
<svg xmlns="http://www.w3.org/2000/svg" xml:space="preserve" width="21.1666mm" height="21.1216mm" version="1.1" style="shape-rendering:geometricPrecision; text-rendering:geometricPrecision; image-rendering:optimizeQuality; fill-rule:evenodd; clip-rule:evenodd"
viewBox="0 0 2057 2053"
 xmlns:xlink="http://www.w3.org/1999/xlink">
 <defs>
  <style type="text/css">
   <![CDATA[
    .fil0 {fill:#009345}
   ]]>
  </style>
 </defs>
 <g id="Capa_x0020_1">
  <metadata id="CorelCorpID_0Corel-Layer"/>
  <g id="__x0023_009345ff">
   <g>
    <path class="fil0" d="M971 2c255,-16 515,69 711,232 166,135 286,323 341,529 52,195 45,407 -21,598 -69,201 -203,378 -375,502 -174,123 -386,193 -599,190 -238,3 -474,-84 -656,-236 -183,-150 -311,-365 -354,-597 -40,-216 -13,-445 85,-642 109,-226 304,-408 536,-502 105,-43 218,-67 332,-74l0 0zm-127 841c-149,0 -299,0 -448,0 0,123 0,245 0,368 150,0 299,0 448,0 0,149 0,298 0,447 123,0 246,0 368,0 1,-149 1,-298 0,-447 150,0 299,0 448,0 0,-123 0,-246 0,-368 -149,0 -298,0 -448,0 0,-149 1,-298 0,-447 -122,-1 -245,0 -368,-1 -1,150 0,299 0,448z"/>
   </g>
  </g>
 </g>
</svg>
